<svg xmlns="http://www.w3.org/2000/svg" viewBox="0 0 24 24" fill="none" stroke="currentColor" stroke-width="2" stroke-linecap="round" stroke-linejoin="round">
  <defs>
    <linearGradient id="grad1" x1="0%" y1="0%" x2="100%" y2="100%">
      <stop offset="0%" style="stop-color:#8b5cf6;stop-opacity:1" />
      <stop offset="100%" style="stop-color:#3b82f6;stop-opacity:1" />
    </linearGradient>
  </defs>
  <path d="M19 3v13.38a2 2 0 0 1-1.21 1.84l-4.25 1.7a2 2 0 0 0-1.07 1.48l-.34 2.05a.48.48 0 0 1-.94 0l-.34-2.05a2 2 0 0 0-1.07-1.48l-4.25-1.7A2 2 0 0 1 4.33 16.38V3c0-1.1.9-2 2-2h10.67c1.1 0 2 .9 2 2Z" style="fill:url(#grad1);stroke:none"/>
  <path d="M9 7l3 5 3-5" style="stroke:white;stroke-width:2;fill:none"/>
  <circle cx="12" cy="15" r="1.5" style="fill:white;stroke:none"/>
</svg>
